# xmcd
#
# Track frame offsets:
#	150
#	22984
#	59303
#	84978
#	107209
#	131599
#	149869
#	170657
#	188468
#	205681
#	220644
#	245604
#
# Disc length: 3542 seconds
#
# Revision: 1
# Processed by: cddbd v1.5.1PL0 Copyright (c) Steve Scherf et al.
# Submitted via: audiograbber 1.81.02
#
DISCID=a80dd40c
DTITLE=Mel Tormé and Buddy Rich - Blues In The Night
DYEAR=1900
DGENRE=
TTITLE0=All In Love Is Fair
TTITLE1=Blues In The Night
TTITLE2=Bye Bye Blackbird
TTITLE3=Here's That Rainy Day
TTITLE4=New York State Of Mind
TTITLE5=Send In The Clowns
TTITLE6=Lady Be Good
TTITLE7=I Won't Last A Day Without You
TTITLE8=The First Time Ever I Saw Your Face
TTITLE9=When I Found You
TTITLE10=When The World Was Young
TTITLE11=You Are The Sunshine Of My Life
EXTD=
EXTT0=
EXTT1=
EXTT2=
EXTT3=
EXTT4=
EXTT5=
EXTT6=
EXTT7=
EXTT8=
EXTT9=
EXTT10=
EXTT11=
PLAYORDER=
